<?xml version="1.0" encoding="UTF-8" standalone="no"?>
<!DOCTYPE svg PUBLIC "-//W3C//DTD SVG 1.0//EN"
 "http://www.w3.org/TR/2001/REC-SVG-20010904/DTD/svg10.dtd" [
 <!ATTLIST svg xmlns:xlink CDATA #FIXED "http://www.w3.org/1999/xlink">
]>
<!-- Generated by Graphviz version 2.20.2 (Tue Mar &#160;2 19:03:41 UTC 2010)
     For user: (bana) Jason Knight,,, -->
<!-- Title: G Pages: 1 -->
<svg width="263pt" height="298pt"
 viewBox="0.00 0.00 263.00 298.00" xmlns="http://www.w3.org/2000/svg" xmlns:xlink="http://www.w3.org/1999/xlink">
<g id="graph0" class="graph" transform="scale(1 1) rotate(0) translate(4 294)">
<title>G</title>
<polygon style="fill:white;stroke:white;" points="-4,4 -4,-294 259,-294 259,4 -4,4"/>
<!-- 000 -->
<g id="node1" class="node"><title>000</title>
<ellipse style="fill:none;stroke:black;" cx="30" cy="-272" rx="29.8799" ry="18"/>
<text text-anchor="middle" x="30" y="-267.9" style="font-family:Times New Roman;font-size:14.00;">000</text>
</g>
<!-- 001 -->
<g id="node3" class="node"><title>001</title>
<ellipse style="fill:none;stroke:black;" cx="69" cy="-198" rx="29.8799" ry="18"/>
<text text-anchor="middle" x="69" y="-193.9" style="font-family:Times New Roman;font-size:14.00;">001</text>
</g>
<!-- 000&#45;&gt;001 -->
<g id="edge2" class="edge"><title>000&#45;&gt;001</title>
<path style="fill:none;stroke:black;" d="M39,-255C44,-246 50,-234 55,-224"/>
<polygon style="fill:black;stroke:black;" points="58.2031,-225.441 60,-215 52.084,-222.042 58.2031,-225.441"/>
</g>
<!-- 011 -->
<g id="node5" class="node"><title>011</title>
<ellipse style="fill:none;stroke:black;" cx="69" cy="-108" rx="29.8799" ry="18"/>
<text text-anchor="middle" x="69" y="-103.9" style="font-family:Times New Roman;font-size:14.00;">011</text>
</g>
<!-- 001&#45;&gt;011 -->
<g id="edge4" class="edge"><title>001&#45;&gt;011</title>
<path style="fill:none;stroke:black;" d="M69,-180C69,-167 69,-151 69,-136"/>
<polygon style="fill:black;stroke:black;" points="72.5001,-136 69,-126 65.5001,-136 72.5001,-136"/>
<text text-anchor="middle" x="81" y="-148.9" style="font-family:Times New Roman;font-size:14.00;">0.5</text>
</g>
<!-- 011&#45;&gt;011 -->
<g id="edge8" class="edge"><title>011&#45;&gt;011</title>
<path style="fill:none;stroke:black;" d="M96,-116C107,-117 117,-114 117,-108 117,-104 112,-101 106,-100"/>
<polygon style="fill:black;stroke:black;" points="106,-96.5001 96,-100 106,-103.5 106,-96.5001"/>
<text text-anchor="middle" x="129" y="-103.9" style="font-family:Times New Roman;font-size:14.00;">0.5</text>
</g>
<!-- 010 -->
<g id="node6" class="node"><title>010</title>
<ellipse style="fill:none;stroke:black;" cx="108" cy="-272" rx="29.8799" ry="18"/>
<text text-anchor="middle" x="108" y="-267.9" style="font-family:Times New Roman;font-size:14.00;">010</text>
</g>
<!-- 010&#45;&gt;001 -->
<g id="edge6" class="edge"><title>010&#45;&gt;001</title>
<path style="fill:none;stroke:black;" d="M99,-255C94,-246 88,-234 83,-224"/>
<polygon style="fill:black;stroke:black;" points="85.916,-222.042 78,-215 79.7969,-225.441 85.916,-222.042"/>
</g>
<!-- 100 -->
<g id="node9" class="node"><title>100</title>
<ellipse style="fill:none;stroke:black;" cx="225" cy="-272" rx="29.8799" ry="18"/>
<text text-anchor="middle" x="225" y="-267.9" style="font-family:Times New Roman;font-size:14.00;">100</text>
</g>
<!-- 101 -->
<g id="node11" class="node"><title>101</title>
<ellipse style="fill:none;stroke:black;" cx="188" cy="-198" rx="29.8799" ry="18"/>
<text text-anchor="middle" x="188" y="-193.9" style="font-family:Times New Roman;font-size:14.00;">101</text>
</g>
<!-- 100&#45;&gt;101 -->
<g id="edge10" class="edge"><title>100&#45;&gt;101</title>
<path style="fill:none;stroke:black;" d="M216,-254C212,-246 206,-235 201,-225"/>
<polygon style="fill:black;stroke:black;" points="204.26,-223.717 197,-216 197.863,-226.56 204.26,-223.717"/>
</g>
<!-- 111 -->
<g id="node13" class="node"><title>111</title>
<ellipse style="fill:none;stroke:black;" cx="188" cy="-108" rx="29.8799" ry="18"/>
<text text-anchor="middle" x="188" y="-103.9" style="font-family:Times New Roman;font-size:14.00;">111</text>
</g>
<!-- 101&#45;&gt;111 -->
<g id="edge12" class="edge"><title>101&#45;&gt;111</title>
<path style="fill:none;stroke:black;" d="M188,-180C188,-167 188,-151 188,-136"/>
<polygon style="fill:black;stroke:black;" points="191.5,-136 188,-126 184.5,-136 191.5,-136"/>
<text text-anchor="middle" x="200" y="-148.9" style="font-family:Times New Roman;font-size:14.00;">0.5</text>
</g>
<!-- 110 -->
<g id="node14" class="node"><title>110</title>
<ellipse style="fill:none;stroke:black;" cx="222" cy="-18" rx="29.8799" ry="18"/>
<text text-anchor="middle" x="222" y="-13.9" style="font-family:Times New Roman;font-size:14.00;">110</text>
</g>
<!-- 111&#45;&gt;110 -->
<g id="edge16" class="edge"><title>111&#45;&gt;110</title>
<path style="fill:none;stroke:black;" d="M195,-90C200,-77 207,-60 212,-46"/>
<polygon style="fill:black;stroke:black;" points="215.479,-46.584 215,-36 208.774,-44.5725 215.479,-46.584"/>
<text text-anchor="middle" x="221" y="-58.9" style="font-family:Times New Roman;font-size:14.00;">0.5</text>
</g>
<!-- 110&#45;&gt;100 -->
<g id="edge14" class="edge"><title>110&#45;&gt;100</title>
<path style="fill:none;stroke:black;" d="M228,-36C230,-42 231,-48 232,-54 234,-61 233,-64 232,-72 231,-133 229,-205 227,-244"/>
<polygon style="fill:black;stroke:black;" points="223.512,-243.701 226,-254 230.478,-244.398 223.512,-243.701"/>
</g>
</g>
</svg>
