<?xml version="1.0" encoding="UTF-8" standalone="no"?>
<!DOCTYPE svg PUBLIC "-//W3C//DTD SVG 1.0//EN"
 "http://www.w3.org/TR/2001/REC-SVG-20010904/DTD/svg10.dtd" [
 <!ATTLIST svg xmlns:xlink CDATA #FIXED "http://www.w3.org/1999/xlink">
]>
<!-- Generated by Graphviz version 2.20.2 (Tue Mar &#160;2 19:03:41 UTC 2010)
     For user: (bana) Jason Knight,,, -->
<!-- Title: G Pages: 1 -->
<svg width="440pt" height="298pt"
 viewBox="0.00 0.00 440.00 298.00" xmlns="http://www.w3.org/2000/svg" xmlns:xlink="http://www.w3.org/1999/xlink">
<g id="graph0" class="graph" transform="scale(1 1) rotate(0) translate(4 294)">
<title>G</title>
<polygon style="fill:white;stroke:white;" points="-4,4 -4,-294 436,-294 436,4 -4,4"/>
<!-- 000 -->
<g id="node1" class="node"><title>000</title>
<ellipse style="fill:none;stroke:black;" cx="30" cy="-272" rx="29.8799" ry="18"/>
<text text-anchor="middle" x="30" y="-267.9" style="font-family:Times New Roman;font-size:14.00;">000</text>
</g>
<!-- 001 -->
<g id="node3" class="node"><title>001</title>
<ellipse style="fill:none;stroke:black;" cx="69" cy="-198" rx="29.8799" ry="18"/>
<text text-anchor="middle" x="69" y="-193.9" style="font-family:Times New Roman;font-size:14.00;">001</text>
</g>
<!-- 000&#45;&gt;001 -->
<g id="edge2" class="edge"><title>000&#45;&gt;001</title>
<path style="fill:none;stroke:black;" d="M39,-255C44,-246 50,-234 55,-224"/>
<polygon style="fill:black;stroke:black;" points="58.2031,-225.441 60,-215 52.084,-222.042 58.2031,-225.441"/>
</g>
<!-- 001&#45;&gt;001 -->
<g id="edge6" class="edge"><title>001&#45;&gt;001</title>
<path style="fill:none;stroke:black;" d="M97,-205C108,-205 117,-203 117,-198 117,-195 113,-193 107,-192"/>
<polygon style="fill:black;stroke:black;" points="107.299,-188.512 97,-191 106.602,-195.478 107.299,-188.512"/>
<text text-anchor="middle" x="142" y="-193.9" style="font-family:Times New Roman;font-size:14.00;">gamma</text>
</g>
<!-- 011 -->
<g id="node5" class="node"><title>011</title>
<ellipse style="fill:none;stroke:black;" cx="70" cy="-108" rx="29.8799" ry="18"/>
<text text-anchor="middle" x="70" y="-103.9" style="font-family:Times New Roman;font-size:14.00;">011</text>
</g>
<!-- 001&#45;&gt;011 -->
<g id="edge4" class="edge"><title>001&#45;&gt;011</title>
<path style="fill:none;stroke:black;" d="M51,-184C44,-178 38,-170 34,-162 31,-154 31,-151 34,-144 36,-138 40,-134 44,-129"/>
<polygon style="fill:black;stroke:black;" points="46.4038,-131.546 51,-122 41.454,-126.596 46.4038,-131.546"/>
<text text-anchor="middle" x="62" y="-148.9" style="font-family:Times New Roman;font-size:14.00;">gamma</text>
</g>
<!-- 011&#45;&gt;001 -->
<g id="edge10" class="edge"><title>011&#45;&gt;001</title>
<path style="fill:none;stroke:black;" d="M78,-126C81,-131 83,-138 84,-144 86,-151 86,-154 84,-162 83,-165 82,-168 81,-172"/>
<polygon style="fill:black;stroke:black;" points="77.842,-170.406 78,-181 84.4827,-172.62 77.842,-170.406"/>
<text text-anchor="middle" x="111" y="-148.9" style="font-family:Times New Roman;font-size:14.00;">gamma</text>
</g>
<!-- 011&#45;&gt;011 -->
<g id="edge12" class="edge"><title>011&#45;&gt;011</title>
<path style="fill:none;stroke:black;" d="M97,-116C108,-117 118,-114 118,-108 118,-104 113,-101 107,-100"/>
<polygon style="fill:black;stroke:black;" points="107,-96.5001 97,-100 107,-103.5 107,-96.5001"/>
<text text-anchor="middle" x="143" y="-103.9" style="font-family:Times New Roman;font-size:14.00;">gamma</text>
</g>
<!-- 010 -->
<g id="node7" class="node"><title>010</title>
<ellipse style="fill:none;stroke:black;" cx="108" cy="-272" rx="29.8799" ry="18"/>
<text text-anchor="middle" x="108" y="-267.9" style="font-family:Times New Roman;font-size:14.00;">010</text>
</g>
<!-- 010&#45;&gt;001 -->
<g id="edge8" class="edge"><title>010&#45;&gt;001</title>
<path style="fill:none;stroke:black;" d="M99,-255C94,-246 88,-234 83,-224"/>
<polygon style="fill:black;stroke:black;" points="85.916,-222.042 78,-215 79.7969,-225.441 85.916,-222.042"/>
</g>
<!-- 100 -->
<g id="node11" class="node"><title>100</title>
<ellipse style="fill:none;stroke:black;" cx="349" cy="-272" rx="29.8799" ry="18"/>
<text text-anchor="middle" x="349" y="-267.9" style="font-family:Times New Roman;font-size:14.00;">100</text>
</g>
<!-- 101 -->
<g id="node13" class="node"><title>101</title>
<ellipse style="fill:none;stroke:black;" cx="215" cy="-198" rx="29.8799" ry="18"/>
<text text-anchor="middle" x="215" y="-193.9" style="font-family:Times New Roman;font-size:14.00;">101</text>
</g>
<!-- 100&#45;&gt;101 -->
<g id="edge14" class="edge"><title>100&#45;&gt;101</title>
<path style="fill:none;stroke:black;" d="M327,-260C305,-248 271,-229 246,-215"/>
<polygon style="fill:black;stroke:black;" points="247.441,-211.797 237,-210 244.042,-217.916 247.441,-211.797"/>
</g>
<!-- 101&#45;&gt;101 -->
<g id="edge16" class="edge"><title>101&#45;&gt;101</title>
<path style="fill:none;stroke:black;" d="M243,-205C254,-205 263,-203 263,-198 263,-195 259,-193 253,-192"/>
<polygon style="fill:black;stroke:black;" points="253.299,-188.512 243,-191 252.602,-195.478 253.299,-188.512"/>
<text text-anchor="middle" x="288" y="-193.9" style="font-family:Times New Roman;font-size:14.00;">gamma</text>
</g>
<!-- 111 -->
<g id="node16" class="node"><title>111</title>
<ellipse style="fill:none;stroke:black;" cx="349" cy="-108" rx="29.8799" ry="18"/>
<text text-anchor="middle" x="349" y="-103.9" style="font-family:Times New Roman;font-size:14.00;">111</text>
</g>
<!-- 101&#45;&gt;111 -->
<g id="edge18" class="edge"><title>101&#45;&gt;111</title>
<path style="fill:none;stroke:black;" d="M233,-183C247,-172 267,-156 285,-144 295,-137 307,-130 317,-125"/>
<polygon style="fill:black;stroke:black;" points="318.958,-127.916 326,-120 315.559,-121.797 318.958,-127.916"/>
<text text-anchor="middle" x="310" y="-148.9" style="font-family:Times New Roman;font-size:14.00;">gamma</text>
</g>
<!-- 111&#45;&gt;100 -->
<g id="edge22" class="edge"><title>111&#45;&gt;100</title>
<path style="fill:none;stroke:black;" d="M349,-126C349,-155 349,-210 349,-244"/>
<polygon style="fill:black;stroke:black;" points="345.5,-244 349,-254 352.5,-244 345.5,-244"/>
<text text-anchor="middle" x="374" y="-193.9" style="font-family:Times New Roman;font-size:14.00;">gamma</text>
</g>
<!-- 110 -->
<g id="node17" class="node"><title>110</title>
<ellipse style="fill:none;stroke:black;" cx="391" cy="-18" rx="29.8799" ry="18"/>
<text text-anchor="middle" x="391" y="-13.9" style="font-family:Times New Roman;font-size:14.00;">110</text>
</g>
<!-- 111&#45;&gt;110 -->
<g id="edge24" class="edge"><title>111&#45;&gt;110</title>
<path style="fill:none;stroke:black;" d="M352,-90C354,-79 358,-65 363,-54 365,-50 367,-46 370,-42"/>
<polygon style="fill:black;stroke:black;" points="372.8,-44.1 376,-34 367.2,-39.9 372.8,-44.1"/>
<text text-anchor="middle" x="388" y="-58.9" style="font-family:Times New Roman;font-size:14.00;">gamma</text>
</g>
<!-- 110&#45;&gt;100 -->
<g id="edge20" class="edge"><title>110&#45;&gt;100</title>
<path style="fill:none;stroke:black;" d="M404,-35C408,-40 411,-47 413,-54 432,-123 432,-150 403,-216 397,-230 386,-242 376,-251"/>
<polygon style="fill:black;stroke:black;" points="373.221,-248.781 368,-258 377.831,-254.049 373.221,-248.781"/>
</g>
</g>
</svg>
