<?xml version="1.0" encoding="UTF-8" standalone="no"?>
<!DOCTYPE svg PUBLIC "-//W3C//DTD SVG 1.0//EN"
 "http://www.w3.org/TR/2001/REC-SVG-20010904/DTD/svg10.dtd" [
 <!ATTLIST svg xmlns:xlink CDATA #FIXED "http://www.w3.org/1999/xlink">
]>
<!-- Generated by Graphviz version 2.20.2 (Tue Mar &#160;2 19:03:41 UTC 2010)
     For user: (bana) Jason Knight,,, -->
<!-- Title: G Pages: 1 -->
<svg width="445pt" height="298pt"
 viewBox="0.00 0.00 445.00 298.00" xmlns="http://www.w3.org/2000/svg" xmlns:xlink="http://www.w3.org/1999/xlink">
<g id="graph0" class="graph" transform="scale(1 1) rotate(0) translate(4 294)">
<title>G</title>
<polygon style="fill:white;stroke:white;" points="-4,4 -4,-294 441,-294 441,4 -4,4"/>
<!-- 000 -->
<g id="node1" class="node"><title>000</title>
<ellipse style="fill:none;stroke:black;" cx="30" cy="-272" rx="29.8799" ry="18"/>
<text text-anchor="middle" x="30" y="-267.9" style="font-family:Times New Roman;font-size:14.00;">000</text>
</g>
<!-- 001 -->
<g id="node3" class="node"><title>001</title>
<ellipse style="fill:none;stroke:black;" cx="69" cy="-198" rx="29.8799" ry="18"/>
<text text-anchor="middle" x="69" y="-193.9" style="font-family:Times New Roman;font-size:14.00;">001</text>
</g>
<!-- 000&#45;&gt;001 -->
<g id="edge2" class="edge"><title>000&#45;&gt;001</title>
<path style="fill:none;stroke:black;" d="M39,-255C44,-246 50,-234 55,-224"/>
<polygon style="fill:black;stroke:black;" points="58.2031,-225.441 60,-215 52.084,-222.042 58.2031,-225.441"/>
</g>
<!-- 001&#45;&gt;001 -->
<g id="edge6" class="edge"><title>001&#45;&gt;001</title>
<path style="fill:none;stroke:black;" d="M97,-205C108,-205 117,-203 117,-198 117,-195 113,-193 107,-192"/>
<polygon style="fill:black;stroke:black;" points="107.299,-188.512 97,-191 106.602,-195.478 107.299,-188.512"/>
<text text-anchor="middle" x="142" y="-193.9" style="font-family:Times New Roman;font-size:14.00;">gamma</text>
</g>
<!-- 011 -->
<g id="node5" class="node"><title>011</title>
<ellipse style="fill:none;stroke:black;" cx="69" cy="-108" rx="29.8799" ry="18"/>
<text text-anchor="middle" x="69" y="-103.9" style="font-family:Times New Roman;font-size:14.00;">011</text>
</g>
<!-- 001&#45;&gt;011 -->
<g id="edge4" class="edge"><title>001&#45;&gt;011</title>
<path style="fill:none;stroke:black;" d="M47,-185C39,-179 31,-171 26,-162 23,-154 23,-151 26,-144 29,-137 34,-131 39,-127"/>
<polygon style="fill:black;stroke:black;" points="41.779,-129.219 47,-120 37.1694,-123.951 41.779,-129.219"/>
<text text-anchor="middle" x="62" y="-148.9" style="font-family:Times New Roman;font-size:14.00;">1&#45;gamma</text>
</g>
<!-- 011&#45;&gt;001 -->
<g id="edge10" class="edge"><title>011&#45;&gt;001</title>
<path style="fill:none;stroke:black;" d="M82,-125C86,-130 89,-137 91,-144 94,-151 94,-154 91,-162 90,-166 88,-169 87,-173"/>
<polygon style="fill:black;stroke:black;" points="83.7969,-171.559 82,-182 89.916,-174.958 83.7969,-171.559"/>
<text text-anchor="middle" x="113" y="-148.9" style="font-family:Times New Roman;font-size:14.00;">1&#45;eta</text>
</g>
<!-- 011&#45;&gt;011 -->
<g id="edge12" class="edge"><title>011&#45;&gt;011</title>
<path style="fill:none;stroke:black;" d="M96,-116C107,-117 117,-114 117,-108 117,-104 112,-101 106,-100"/>
<polygon style="fill:black;stroke:black;" points="106,-96.5001 96,-100 106,-103.5 106,-96.5001"/>
<text text-anchor="middle" x="129" y="-103.9" style="font-family:Times New Roman;font-size:14.00;">eta</text>
</g>
<!-- 010 -->
<g id="node7" class="node"><title>010</title>
<ellipse style="fill:none;stroke:black;" cx="108" cy="-272" rx="29.8799" ry="18"/>
<text text-anchor="middle" x="108" y="-267.9" style="font-family:Times New Roman;font-size:14.00;">010</text>
</g>
<!-- 010&#45;&gt;001 -->
<g id="edge8" class="edge"><title>010&#45;&gt;001</title>
<path style="fill:none;stroke:black;" d="M99,-255C94,-246 88,-234 83,-224"/>
<polygon style="fill:black;stroke:black;" points="85.916,-222.042 78,-215 79.7969,-225.441 85.916,-222.042"/>
</g>
<!-- 100 -->
<g id="node11" class="node"><title>100</title>
<ellipse style="fill:none;stroke:black;" cx="336" cy="-272" rx="29.8799" ry="18"/>
<text text-anchor="middle" x="336" y="-267.9" style="font-family:Times New Roman;font-size:14.00;">100</text>
</g>
<!-- 101 -->
<g id="node13" class="node"><title>101</title>
<ellipse style="fill:none;stroke:black;" cx="215" cy="-198" rx="29.8799" ry="18"/>
<text text-anchor="middle" x="215" y="-193.9" style="font-family:Times New Roman;font-size:14.00;">101</text>
</g>
<!-- 100&#45;&gt;101 -->
<g id="edge14" class="edge"><title>100&#45;&gt;101</title>
<path style="fill:none;stroke:black;" d="M315,-259C296,-248 266,-230 245,-216"/>
<polygon style="fill:black;stroke:black;" points="246.441,-212.797 236,-211 243.042,-218.916 246.441,-212.797"/>
</g>
<!-- 101&#45;&gt;101 -->
<g id="edge16" class="edge"><title>101&#45;&gt;101</title>
<path style="fill:none;stroke:black;" d="M243,-205C254,-205 263,-203 263,-198 263,-195 259,-193 253,-192"/>
<polygon style="fill:black;stroke:black;" points="253.299,-188.512 243,-191 252.602,-195.478 253.299,-188.512"/>
<text text-anchor="middle" x="282" y="-193.9" style="font-family:Times New Roman;font-size:14.00;">1&#45;eta</text>
</g>
<!-- 111 -->
<g id="node16" class="node"><title>111</title>
<ellipse style="fill:none;stroke:black;" cx="336" cy="-108" rx="29.8799" ry="18"/>
<text text-anchor="middle" x="336" y="-103.9" style="font-family:Times New Roman;font-size:14.00;">111</text>
</g>
<!-- 101&#45;&gt;111 -->
<g id="edge18" class="edge"><title>101&#45;&gt;111</title>
<path style="fill:none;stroke:black;" d="M234,-184C254,-169 287,-145 309,-128"/>
<polygon style="fill:black;stroke:black;" points="311.1,-130.8 317,-122 306.9,-125.2 311.1,-130.8"/>
<text text-anchor="middle" x="300" y="-148.9" style="font-family:Times New Roman;font-size:14.00;">eta</text>
</g>
<!-- 111&#45;&gt;100 -->
<g id="edge22" class="edge"><title>111&#45;&gt;100</title>
<path style="fill:none;stroke:black;" d="M336,-126C336,-155 336,-210 336,-244"/>
<polygon style="fill:black;stroke:black;" points="332.5,-244 336,-254 339.5,-244 332.5,-244"/>
<text text-anchor="middle" x="369" y="-193.9" style="font-family:Times New Roman;font-size:14.00;">1&#45;gamma</text>
</g>
<!-- 110 -->
<g id="node17" class="node"><title>110</title>
<ellipse style="fill:none;stroke:black;" cx="389" cy="-18" rx="29.8799" ry="18"/>
<text text-anchor="middle" x="389" y="-13.9" style="font-family:Times New Roman;font-size:14.00;">110</text>
</g>
<!-- 111&#45;&gt;110 -->
<g id="edge24" class="edge"><title>111&#45;&gt;110</title>
<path style="fill:none;stroke:black;" d="M345,-91C350,-80 358,-66 365,-54 367,-50 369,-47 371,-43"/>
<polygon style="fill:black;stroke:black;" points="373.8,-45.1 377,-35 368.2,-40.9 373.8,-45.1"/>
<text text-anchor="middle" x="390" y="-58.9" style="font-family:Times New Roman;font-size:14.00;">gamma</text>
</g>
<!-- 110&#45;&gt;100 -->
<g id="edge20" class="edge"><title>110&#45;&gt;100</title>
<path style="fill:none;stroke:black;" d="M403,-34C408,-40 412,-47 415,-54 437,-122 438,-151 405,-216 396,-232 381,-245 367,-254"/>
<polygon style="fill:black;stroke:black;" points="364.9,-251.2 359,-260 369.1,-256.8 364.9,-251.2"/>
</g>
</g>
</svg>
