<?xml version="1.0" encoding="UTF-8" standalone="no"?>
<!DOCTYPE svg PUBLIC "-//W3C//DTD SVG 1.0//EN"
 "http://www.w3.org/TR/2001/REC-SVG-20010904/DTD/svg10.dtd" [
 <!ATTLIST svg xmlns:xlink CDATA #FIXED "http://www.w3.org/1999/xlink">
]>
<!-- Generated by Graphviz version 2.20.2 (Tue Mar &#160;2 19:03:41 UTC 2010)
     For user: (bana) Jason Knight,,, -->
<!-- Title: fgl Pages: 1 -->
<svg width="290pt" height="330pt"
 viewBox="0.00 0.00 290.00 330.00" xmlns="http://www.w3.org/2000/svg" xmlns:xlink="http://www.w3.org/1999/xlink">
<g id="graph0" class="graph" transform="scale(1 1) rotate(0) translate(4 326)">
<title>fgl</title>
<polygon style="fill:white;stroke:white;" points="-4,4 -4,-326 286,-326 286,4 -4,4"/>
<g id="cluster2" class="cluster"><title>cluster_a</title>
<polygon style="fill:none;stroke:black;" points="8,-160 8,-314 94,-314 94,-160 8,-160"/>
<text text-anchor="middle" x="51" y="-297.9" style="font-family:Times New Roman;font-size:14.00;">testing</text>
</g>
<g id="cluster3" class="cluster"><title>cluster_b</title>
<polygon style="fill:none;stroke:black;" points="96,-16 96,-148 174,-148 174,-16 96,-16"/>
</g>
<g id="cluster4" class="cluster"><title>cluster_c</title>
<polygon style="fill:none;stroke:black;" points="10,-16 10,-148 88,-148 88,-16 10,-16"/>
</g>
<g id="cluster5" class="cluster"><title>cluster_d</title>
<polygon style="fill:lightgray;stroke:lightgray;" points="182,-88 182,-237 274,-237 274,-88 182,-88"/>
<text text-anchor="middle" x="228" y="-220.9" style="font-family:Times New Roman;font-size:14.00;">testing1</text>
</g>
<!-- 1 -->
<g id="node2" class="node"><title>1</title>
<ellipse style="fill:none;stroke:black;" cx="51" cy="-186" rx="29.1851" ry="18"/>
<text text-anchor="middle" x="51" y="-181.9" style="font-family:Times New Roman;font-size:14.00;">a20</text>
</g>
<!-- 7 -->
<g id="node11" class="node"><title>7</title>
<ellipse style="fill:none;stroke:black;" cx="49" cy="-114" rx="30.7734" ry="18"/>
<text text-anchor="middle" x="49" y="-109.9" style="font-family:Times New Roman;font-size:14.00;">nikk</text>
</g>
<!-- 1&#45;&gt;7 -->
<g id="edge16" class="edge"><title>1&#45;&gt;7</title>
<path style="fill:none;stroke:black;" d="M50,-168C50,-160 50,-151 50,-142"/>
<polygon style="fill:black;stroke:black;" points="53.4778,-141.602 49,-132 46.5125,-142.299 53.4778,-141.602"/>
</g>
<!-- 5 -->
<g id="node3" class="node"><title>5</title>
<ellipse style="fill:none;stroke:black;" cx="51" cy="-263" rx="34.9399" ry="18"/>
<text text-anchor="middle" x="51" y="-258.9" style="font-family:Times New Roman;font-size:14.00;">na20</text>
</g>
<!-- 5&#45;&gt;1 -->
<g id="edge3" class="edge"><title>5&#45;&gt;1</title>
<path style="fill:none;stroke:red;" d="M51,-245C51,-233 51,-216 51,-204"/>
</g>
<!-- 6 -->
<g id="node6" class="node"><title>6</title>
<ellipse style="fill:none;stroke:black;" cx="135" cy="-114" rx="30.7734" ry="18"/>
<text text-anchor="middle" x="135" y="-109.9" style="font-family:Times New Roman;font-size:14.00;">nikb</text>
</g>
<!-- 2 -->
<g id="node7" class="node"><title>2</title>
<ellipse style="fill:none;stroke:black;" cx="137" cy="-42" rx="27" ry="18"/>
<text text-anchor="middle" x="137" y="-37.9" style="font-family:Times New Roman;font-size:14.00;">ikb</text>
</g>
<!-- 6&#45;&gt;2 -->
<g id="edge6" class="edge"><title>6&#45;&gt;2</title>
<path style="fill:none;stroke:red;" d="M136,-96C136,-85 136,-71 137,-60"/>
</g>
<!-- 8 -->
<g id="node15" class="node"><title>8</title>
<ellipse style="fill:none;stroke:black;" cx="228" cy="-186" rx="38.2185" ry="18"/>
<text text-anchor="middle" x="228" y="-181.9" style="font-family:Times New Roman;font-size:14.00;">nnfkb</text>
</g>
<!-- 2&#45;&gt;8 -->
<g id="edge18" class="edge"><title>2&#45;&gt;8</title>
<path style="fill:none;stroke:black;" d="M163,-48C196,-56 251,-71 263,-88 278,-109 272,-123 263,-148 261,-153 257,-158 254,-163"/>
<polygon style="fill:black;stroke:black;" points="251.596,-160.454 247,-170 256.546,-165.404 251.596,-160.454"/>
</g>
<!-- 3 -->
<g id="node10" class="node"><title>3</title>
<ellipse style="fill:none;stroke:black;" cx="51" cy="-42" rx="27" ry="18"/>
<text text-anchor="middle" x="51" y="-37.9" style="font-family:Times New Roman;font-size:14.00;">ikk</text>
</g>
<!-- 3&#45;&gt;6 -->
<g id="edge20" class="edge"><title>3&#45;&gt;6</title>
<path style="fill:none;stroke:black;" d="M68,-56C80,-67 96,-81 110,-93"/>
<polygon style="fill:black;stroke:black;" points="107.9,-95.8 118,-99 112.1,-90.2 107.9,-95.8"/>
</g>
<!-- 7&#45;&gt;2 -->
<g id="edge14" class="edge"><title>7&#45;&gt;2</title>
<path style="fill:none;stroke:black;" d="M67,-99C80,-88 98,-74 112,-63"/>
<polygon style="fill:black;stroke:black;" points="114.779,-65.2191 120,-56 110.169,-59.9511 114.779,-65.2191"/>
</g>
<!-- 7&#45;&gt;3 -->
<g id="edge9" class="edge"><title>7&#45;&gt;3</title>
<path style="fill:none;stroke:red;" d="M50,-96C50,-85 50,-71 51,-60"/>
</g>
<!-- 4 -->
<g id="node14" class="node"><title>4</title>
<ellipse style="fill:none;stroke:black;" cx="222" cy="-114" rx="31.9646" ry="18"/>
<text text-anchor="middle" x="222" y="-109.9" style="font-family:Times New Roman;font-size:14.00;">nfkb</text>
</g>
<!-- 4&#45;&gt;1 -->
<g id="edge24" class="edge"><title>4&#45;&gt;1</title>
<path style="fill:none;stroke:black;" d="M205,-130C197,-136 187,-143 178,-148 150,-162 115,-172 89,-179"/>
<polygon style="fill:black;stroke:black;" points="88.1194,-175.607 79,-181 89.4922,-182.471 88.1194,-175.607"/>
</g>
<!-- 4&#45;&gt;2 -->
<g id="edge22" class="edge"><title>4&#45;&gt;2</title>
<path style="fill:none;stroke:black;" d="M204,-99C191,-89 175,-75 161,-63"/>
<polygon style="fill:black;stroke:black;" points="163.546,-60.5962 154,-56 158.596,-65.546 163.546,-60.5962"/>
</g>
<!-- 8&#45;&gt;4 -->
<g id="edge12" class="edge"><title>8&#45;&gt;4</title>
<path style="fill:none;stroke:red;" d="M226,-168C225,-157 224,-143 224,-132"/>
</g>
</g>
</svg>
