<?xml version="1.0" encoding="UTF-8" standalone="no"?>
<!DOCTYPE svg PUBLIC "-//W3C//DTD SVG 1.0//EN"
 "http://www.w3.org/TR/2001/REC-SVG-20010904/DTD/svg10.dtd" [
 <!ATTLIST svg xmlns:xlink CDATA #FIXED "http://www.w3.org/1999/xlink">
]>
<!-- Generated by Graphviz version 2.20.2 (Tue Mar &#160;2 19:03:41 UTC 2010)
     For user: (bana) Jason Knight,,, -->
<!-- Title: fgl Pages: 1 -->
<svg width="368pt" height="620pt"
 viewBox="0.00 0.00 368.00 620.00" xmlns="http://www.w3.org/2000/svg" xmlns:xlink="http://www.w3.org/1999/xlink">
<g id="graph0" class="graph" transform="scale(1 1) rotate(0) translate(4 616)">
<title>fgl</title>
<polygon style="fill:white;stroke:white;" points="-4,4 -4,-616 364,-616 364,4 -4,4"/>
<!-- 1 -->
<g id="node1" class="node"><title>1</title>
<ellipse style="fill:none;stroke:black;" cx="282" cy="-522" rx="29.1851" ry="18"/>
<text text-anchor="middle" x="282" y="-517.9" style="font-family:Times New Roman;font-size:14.00;">a20</text>
</g>
<!-- 13 -->
<g id="node13" class="node"><title>13</title>
<ellipse style="fill:none;stroke:black;" cx="202" cy="-450" rx="29.8799" ry="18"/>
<text text-anchor="middle" x="202" y="-445.9" style="font-family:Times New Roman;font-size:14.00;">nrip</text>
</g>
<!-- 1&#45;&gt;13 -->
<g id="edge2" class="edge"><title>1&#45;&gt;13</title>
<path style="fill:none;stroke:black;" d="M265,-507C254,-497 239,-483 227,-472"/>
<polygon style="fill:black;stroke:black;" points="228.831,-468.951 219,-465 224.221,-474.219 228.831,-468.951"/>
</g>
<!-- 2 -->
<g id="node2" class="node"><title>2</title>
<ellipse style="fill:none;stroke:black;" cx="269" cy="-162" rx="27" ry="18"/>
<text text-anchor="middle" x="269" y="-157.9" style="font-family:Times New Roman;font-size:14.00;">ikb</text>
</g>
<!-- 12 -->
<g id="node12" class="node"><title>12</title>
<ellipse style="fill:none;stroke:black;" cx="256" cy="-90" rx="38.2185" ry="18"/>
<text text-anchor="middle" x="256" y="-85.9" style="font-family:Times New Roman;font-size:14.00;">nnfkb</text>
</g>
<!-- 2&#45;&gt;12 -->
<g id="edge4" class="edge"><title>2&#45;&gt;12</title>
<path style="fill:none;stroke:black;" d="M266,-144C265,-136 263,-127 261,-118"/>
<polygon style="fill:black;stroke:black;" points="264.393,-117.119 259,-108 257.529,-118.492 264.393,-117.119"/>
</g>
<!-- 3 -->
<g id="node3" class="node"><title>3</title>
<ellipse style="fill:none;stroke:black;" cx="212" cy="-306" rx="27" ry="18"/>
<text text-anchor="middle" x="212" y="-301.9" style="font-family:Times New Roman;font-size:14.00;">ikk</text>
</g>
<!-- 10 -->
<g id="node10" class="node"><title>10</title>
<ellipse style="fill:none;stroke:black;" cx="218" cy="-234" rx="30.7734" ry="18"/>
<text text-anchor="middle" x="218" y="-229.9" style="font-family:Times New Roman;font-size:14.00;">nikb</text>
</g>
<!-- 3&#45;&gt;10 -->
<g id="edge6" class="edge"><title>3&#45;&gt;10</title>
<path style="fill:none;stroke:black;" d="M214,-288C215,-280 215,-271 216,-262"/>
<polygon style="fill:black;stroke:black;" points="219.5,-262 216,-252 212.5,-262 219.5,-262"/>
</g>
<!-- 4 -->
<g id="node4" class="node"><title>4</title>
<ellipse style="fill:none;stroke:black;" cx="322" cy="-18" rx="31.9646" ry="18"/>
<text text-anchor="middle" x="322" y="-13.9" style="font-family:Times New Roman;font-size:14.00;">nfkb</text>
</g>
<!-- 4&#45;&gt;1 -->
<g id="edge8" class="edge"><title>4&#45;&gt;1</title>
<path style="fill:none;stroke:black;" d="M330,-36C341,-62 360,-115 360,-162 360,-378 360,-378 360,-378 360,-418 361,-432 341,-468 333,-481 321,-493 310,-503"/>
<polygon style="fill:black;stroke:black;" points="307.9,-500.2 302,-509 312.1,-505.8 307.9,-500.2"/>
</g>
<!-- 4&#45;&gt;2 -->
<g id="edge10" class="edge"><title>4&#45;&gt;2</title>
<path style="fill:none;stroke:black;" d="M320,-36C318,-55 312,-84 303,-108 298,-118 292,-128 286,-138"/>
<polygon style="fill:black;stroke:black;" points="283.332,-135.665 281,-146 289.268,-139.375 283.332,-135.665"/>
</g>
<!-- 5 -->
<g id="node5" class="node"><title>5</title>
<ellipse style="fill:none;stroke:black;" cx="133" cy="-378" rx="27" ry="18"/>
<text text-anchor="middle" x="133" y="-373.9" style="font-family:Times New Roman;font-size:14.00;">rip</text>
</g>
<!-- 5&#45;&gt;3 -->
<g id="edge12" class="edge"><title>5&#45;&gt;3</title>
<path style="fill:none;stroke:black;" d="M149,-363C161,-353 176,-339 188,-328"/>
<polygon style="fill:black;stroke:black;" points="190.779,-330.219 196,-321 186.169,-324.951 190.779,-330.219"/>
</g>
<!-- 6 -->
<g id="node6" class="node"><title>6</title>
<ellipse style="fill:none;stroke:black;" cx="127" cy="-450" rx="27" ry="18"/>
<text text-anchor="middle" x="127" y="-445.9" style="font-family:Times New Roman;font-size:14.00;">tnf</text>
</g>
<!-- 6&#45;&gt;5 -->
<g id="edge18" class="edge"><title>6&#45;&gt;5</title>
<path style="fill:none;stroke:black;" d="M129,-432C130,-424 130,-415 131,-406"/>
<polygon style="fill:black;stroke:black;" points="134.5,-406 131,-396 127.5,-406 134.5,-406"/>
</g>
<!-- 7 -->
<g id="node7" class="node"><title>7</title>
<ellipse style="fill:none;stroke:black;" cx="212" cy="-378" rx="34.2406" ry="18"/>
<text text-anchor="middle" x="212" y="-373.9" style="font-family:Times New Roman;font-size:14.00;">traf2</text>
</g>
<!-- 6&#45;&gt;7 -->
<g id="edge16" class="edge"><title>6&#45;&gt;7</title>
<path style="fill:none;stroke:black;" d="M144,-436C157,-426 173,-412 186,-400"/>
<polygon style="fill:black;stroke:black;" points="188.1,-402.8 194,-394 183.9,-397.2 188.1,-402.8"/>
</g>
<!-- 8 -->
<g id="node8" class="node"><title>8</title>
<ellipse style="fill:none;stroke:black;" cx="54" cy="-378" rx="34.2406" ry="18"/>
<text text-anchor="middle" x="54" y="-373.9" style="font-family:Times New Roman;font-size:14.00;">traf5</text>
</g>
<!-- 6&#45;&gt;8 -->
<g id="edge14" class="edge"><title>6&#45;&gt;8</title>
<path style="fill:none;stroke:black;" d="M112,-435C101,-425 88,-412 77,-401"/>
<polygon style="fill:black;stroke:black;" points="79.546,-398.596 70,-394 74.5962,-403.546 79.546,-398.596"/>
</g>
<!-- 7&#45;&gt;3 -->
<g id="edge20" class="edge"><title>7&#45;&gt;3</title>
<path style="fill:none;stroke:black;" d="M212,-360C212,-352 212,-343 212,-334"/>
<polygon style="fill:black;stroke:black;" points="215.5,-334 212,-324 208.5,-334 215.5,-334"/>
</g>
<!-- 8&#45;&gt;3 -->
<g id="edge22" class="edge"><title>8&#45;&gt;3</title>
<path style="fill:none;stroke:black;" d="M80,-366C108,-353 151,-334 180,-320"/>
<polygon style="fill:black;stroke:black;" points="181.283,-323.26 189,-316 178.44,-316.863 181.283,-323.26"/>
</g>
<!-- 9 -->
<g id="node9" class="node"><title>9</title>
<ellipse style="fill:none;stroke:black;" cx="282" cy="-594" rx="34.9399" ry="18"/>
<text text-anchor="middle" x="282" y="-589.9" style="font-family:Times New Roman;font-size:14.00;">na20</text>
</g>
<!-- 9&#45;&gt;1 -->
<g id="edge24" class="edge"><title>9&#45;&gt;1</title>
<path style="fill:none;stroke:red;" d="M282,-576C282,-565 282,-551 282,-540"/>
</g>
<!-- 10&#45;&gt;2 -->
<g id="edge26" class="edge"><title>10&#45;&gt;2</title>
<path style="fill:none;stroke:red;" d="M230,-217C238,-206 249,-190 257,-179"/>
</g>
<!-- 11 -->
<g id="node11" class="node"><title>11</title>
<ellipse style="fill:none;stroke:black;" cx="295" cy="-378" rx="30.7734" ry="18"/>
<text text-anchor="middle" x="295" y="-373.9" style="font-family:Times New Roman;font-size:14.00;">nikk</text>
</g>
<!-- 11&#45;&gt;2 -->
<g id="edge30" class="edge"><title>11&#45;&gt;2</title>
<path style="fill:none;stroke:black;" d="M293,-360C288,-322 278,-235 272,-190"/>
<polygon style="fill:black;stroke:black;" points="275.478,-189.602 271,-180 268.512,-190.299 275.478,-189.602"/>
</g>
<!-- 11&#45;&gt;3 -->
<g id="edge28" class="edge"><title>11&#45;&gt;3</title>
<path style="fill:none;stroke:red;" d="M277,-363C263,-351 243,-333 228,-320"/>
</g>
<!-- 12&#45;&gt;4 -->
<g id="edge32" class="edge"><title>12&#45;&gt;4</title>
<path style="fill:none;stroke:red;" d="M271,-73C282,-61 297,-46 307,-34"/>
</g>
<!-- 13&#45;&gt;5 -->
<g id="edge34" class="edge"><title>13&#45;&gt;5</title>
<path style="fill:none;stroke:red;" d="M187,-434C176,-422 160,-405 148,-393"/>
</g>
<!-- 14 -->
<g id="node14" class="node"><title>14</title>
<ellipse style="fill:none;stroke:black;" cx="127" cy="-522" rx="30.7734" ry="18"/>
<text text-anchor="middle" x="127" y="-517.9" style="font-family:Times New Roman;font-size:14.00;">ntnf</text>
</g>
<!-- 14&#45;&gt;6 -->
<g id="edge36" class="edge"><title>14&#45;&gt;6</title>
<path style="fill:none;stroke:red;" d="M127,-504C127,-493 127,-479 127,-468"/>
</g>
<!-- 15 -->
<g id="node15" class="node"><title>15</title>
<ellipse style="fill:none;stroke:black;" cx="291" cy="-450" rx="40.9981" ry="18"/>
<text text-anchor="middle" x="291" y="-445.9" style="font-family:Times New Roman;font-size:14.00;">ntraf2</text>
</g>
<!-- 15&#45;&gt;7 -->
<g id="edge38" class="edge"><title>15&#45;&gt;7</title>
<path style="fill:none;stroke:red;" d="M273,-434C260,-422 242,-405 229,-394"/>
</g>
<!-- 16 -->
<g id="node16" class="node"><title>16</title>
<ellipse style="fill:none;stroke:black;" cx="41" cy="-450" rx="40.9981" ry="18"/>
<text text-anchor="middle" x="41" y="-445.9" style="font-family:Times New Roman;font-size:14.00;">ntraf5</text>
</g>
<!-- 16&#45;&gt;8 -->
<g id="edge40" class="edge"><title>16&#45;&gt;8</title>
<path style="fill:none;stroke:red;" d="M44,-432C46,-421 49,-407 51,-396"/>
</g>
</g>
</svg>
