<?xml version="1.0" encoding="UTF-8" standalone="no"?>
<!DOCTYPE svg PUBLIC "-//W3C//DTD SVG 1.1//EN"
 "http://www.w3.org/Graphics/SVG/1.1/DTD/svg11.dtd">
<!-- Generated by graphviz version 2.26.3 (20100126.1600)
 -->
<!-- Title: fgl Pages: 1 -->
<svg width="394pt" height="490pt"
 viewBox="0.00 0.00 394.00 490.00" xmlns="http://www.w3.org/2000/svg" xmlns:xlink="http://www.w3.org/1999/xlink">
<g id="graph1" class="graph" transform="scale(1 1) rotate(0) translate(4 486)">
<title>fgl</title>
<polygon fill="white" stroke="white" points="-4,5 -4,-486 391,-486 391,5 -4,5"/>
<!-- 1 -->
<g id="node1" class="node"><title>1</title>
<ellipse fill="#ced9ff" stroke="black" cx="293" cy="-315" rx="31.1127" ry="18.3848"/>
<text text-anchor="middle" x="293" y="-311.4" font-family="Times Roman,serif" font-size="14.00">A20</text>
</g>
<!-- 8 -->
<g id="node8" class="node"><title>8</title>
<ellipse fill="#ced9ff" stroke="black" cx="210" cy="-241" rx="41.2167" ry="18.3848"/>
<text text-anchor="middle" x="210" y="-237.4" font-family="Times Roman,serif" font-size="14.00">NEMO</text>
</g>
<!-- 1&#45;&gt;8 -->
<g id="edge2" class="edge"><title>1&#45;&gt;8</title>
<path fill="none" stroke="#df4b43" d="M275.398,-299.307C262.978,-288.233 246.226,-273.298 232.786,-261.316"/>
<polygon fill="#df4b43" stroke="#df4b43" points="226.149,-262.097 232.804,-254.633 234.297,-255.964 227.642,-263.428 226.149,-262.097"/>
<polyline fill="none" stroke="#df4b43" points="228.73,-257.699 232.462,-261.027 "/>
</g>
<!-- 2 -->
<g id="node2" class="node"><title>2</title>
<ellipse fill="none" stroke="black" cx="123" cy="-315" rx="34.8574" ry="18.3848"/>
<text text-anchor="middle" x="123" y="-311.4" font-family="Times Roman,serif" font-size="14.00">AP&#45;1</text>
</g>
<!-- 3 -->
<g id="node3" class="node"><title>3</title>
<ellipse fill="none" stroke="black" cx="290" cy="-19" rx="27.0758" ry="18.3848"/>
<text text-anchor="middle" x="290" y="-15.4" font-family="Times Roman,serif" font-size="14.00">IκB</text>
</g>
<!-- 10 -->
<g id="node10" class="node"><title>10</title>
<ellipse fill="#ced9ff" stroke="black" cx="290" cy="-93" rx="31.1127" ry="18.3848"/>
<text text-anchor="middle" x="290" y="-89.4" font-family="Times Roman,serif" font-size="14.00">P65</text>
</g>
<!-- 3&#45;&gt;10 -->
<g id="edge4" class="edge"><title>3&#45;&gt;10</title>
<path fill="none" stroke="#df4b43" d="M295.895,-37.0817C296.869,-46.9046 297.011,-59.1611 296.321,-69.6939"/>
<polygon fill="#df4b43" stroke="#df4b43" points="300.98,-74.1141 291.013,-73.3081 291.174,-71.3146 301.141,-72.1206 300.98,-74.1141"/>
<polyline fill="none" stroke="#df4b43" points="295.916,-74.7079 296.319,-69.7241 "/>
</g>
<!-- 4 -->
<g id="node4" class="node"><title>4</title>
<ellipse fill="#ced9ff" stroke="black" cx="210" cy="-167" rx="34.1461" ry="18.3848"/>
<text text-anchor="middle" x="210" y="-163.4" font-family="Times Roman,serif" font-size="14.00">IKKα</text>
</g>
<!-- 9 -->
<g id="node9" class="node"><title>9</title>
<ellipse fill="none" stroke="black" cx="210" cy="-93" rx="31.1127" ry="18.3848"/>
<text text-anchor="middle" x="210" y="-89.4" font-family="Times Roman,serif" font-size="14.00">P52</text>
</g>
<!-- 4&#45;&gt;9 -->
<g id="edge8" class="edge"><title>4&#45;&gt;9</title>
<path fill="none" stroke="black" d="M210,-148.327C210,-140.264 210,-130.648 210,-121.711"/>
<polygon fill="black" stroke="black" points="213.5,-121.667 210,-111.667 206.5,-121.667 213.5,-121.667"/>
</g>
<!-- 4&#45;&gt;10 -->
<g id="edge6" class="edge"><title>4&#45;&gt;10</title>
<path fill="none" stroke="#df4b43" d="M227.359,-150.943C239.603,-139.617 256.067,-124.388 269.043,-112.385"/>
<polygon fill="#df4b43" stroke="#df4b43" points="268.821,-105.78 275.611,-113.121 274.143,-114.479 267.352,-107.138 268.821,-105.78"/>
<polyline fill="none" stroke="#df4b43" points="272.95,-108.771 269.279,-112.167 "/>
</g>
<!-- 5 -->
<g id="node5" class="node"><title>5</title>
<ellipse fill="#ced9ff" stroke="black" cx="352" cy="-167" rx="33.9411" ry="18.3848"/>
<text text-anchor="middle" x="352" y="-163.4" font-family="Times Roman,serif" font-size="14.00">IKKβ</text>
</g>
<!-- 5&#45;&gt;3 -->
<g id="edge10" class="edge"><title>5&#45;&gt;3</title>
<path fill="none" stroke="#df4b43" d="M349.817,-148.471C347.048,-129.179 341.218,-98.4252 330,-74 324.308,-61.6076 315.61,-49.2018 307.777,-39.3173"/>
<polygon fill="#df4b43" stroke="#df4b43" points="301.224,-39.1634 309.002,-32.8778 310.259,-34.4333 302.481,-40.7189 301.224,-39.1634"/>
<polyline fill="none" stroke="#df4b43" points="304.484,-35.2428 307.627,-39.1317 "/>
</g>
<!-- 6 -->
<g id="node6" class="node"><title>6</title>
<ellipse fill="none" stroke="black" cx="324" cy="-463" rx="29.9071" ry="18.3848"/>
<text text-anchor="middle" x="324" y="-459.4" font-family="Times Roman,serif" font-size="14.00">LPS</text>
</g>
<!-- 6&#45;&gt;5 -->
<g id="edge12" class="edge"><title>6&#45;&gt;5</title>
<path fill="none" stroke="black" d="M325.752,-444.484C330.485,-394.441 343.561,-256.207 349.272,-195.837"/>
<polygon fill="black" stroke="black" points="352.792,-195.794 350.249,-185.509 345.823,-195.135 352.792,-195.794"/>
</g>
<!-- 13 -->
<g id="node13" class="node"><title>13</title>
<ellipse fill="#ced9ff" stroke="black" cx="210" cy="-389" rx="38.1838" ry="18.3848"/>
<text text-anchor="middle" x="210" y="-385.4" font-family="Times Roman,serif" font-size="14.00">TNFR</text>
</g>
<!-- 6&#45;&gt;13 -->
<g id="edge14" class="edge"><title>6&#45;&gt;13</title>
<path fill="none" stroke="black" d="M303.091,-449.427C285.922,-438.283 261.333,-422.321 241.737,-409.601"/>
<polygon fill="black" stroke="black" points="243.423,-406.523 233.13,-404.014 239.612,-412.394 243.423,-406.523"/>
</g>
<!-- 7 -->
<g id="node7" class="node"><title>7</title>
<ellipse fill="none" stroke="black" cx="35" cy="-315" rx="34.8574" ry="18.3848"/>
<text text-anchor="middle" x="35" y="-311.4" font-family="Times Roman,serif" font-size="14.00">LTβR</text>
</g>
<!-- 7&#45;&gt;4 -->
<g id="edge18" class="edge"><title>7&#45;&gt;4</title>
<path fill="none" stroke="black" d="M53.7281,-299.161C84.9108,-272.79 147.573,-219.796 183.35,-189.538"/>
<polygon fill="black" stroke="black" points="186.031,-191.855 191.407,-182.725 181.511,-186.51 186.031,-191.855"/>
</g>
<!-- 7&#45;&gt;8 -->
<g id="edge16" class="edge"><title>7&#45;&gt;8</title>
<path fill="none" stroke="black" stroke-dasharray="5,2" d="M62.443,-303.099C67.9231,-300.736 73.6411,-298.282 79,-296 109.588,-282.975 144.279,-268.42 170.275,-257.556"/>
<polygon fill="black" stroke="black" points="171.907,-260.667 179.785,-253.584 169.209,-254.208 171.907,-260.667"/>
</g>
<!-- 8&#45;&gt;4 -->
<g id="edge22" class="edge"><title>8&#45;&gt;4</title>
<path fill="none" stroke="black" d="M210,-222.327C210,-214.264 210,-204.648 210,-195.711"/>
<polygon fill="black" stroke="black" points="213.5,-195.667 210,-185.667 206.5,-195.667 213.5,-195.667"/>
</g>
<!-- 8&#45;&gt;5 -->
<g id="edge20" class="edge"><title>8&#45;&gt;5</title>
<path fill="none" stroke="black" d="M237.043,-226.907C260.162,-214.859 293.531,-197.47 318.368,-184.527"/>
<polygon fill="black" stroke="black" points="320.18,-187.529 327.43,-179.804 316.945,-181.322 320.18,-187.529"/>
</g>
<!-- 10&#45;&gt;1 -->
<g id="edge26" class="edge"><title>10&#45;&gt;1</title>
<path fill="none" stroke="black" d="M290.252,-111.649C290.776,-150.426 291.986,-239.981 292.611,-286.218"/>
<polygon fill="black" stroke="black" points="289.114,-286.502 292.749,-296.454 296.114,-286.408 289.114,-286.502"/>
</g>
<!-- 10&#45;&gt;3 -->
<g id="edge24" class="edge"><title>10&#45;&gt;3</title>
<path fill="none" stroke="black" d="M284.084,-74.7079C283.271,-66.3739 283.052,-56.3216 283.428,-47.0633"/>
<polygon fill="black" stroke="black" points="286.92,-47.2956 284.105,-37.0817 279.936,-46.822 286.92,-47.2956"/>
</g>
<!-- 11 -->
<g id="node11" class="node"><title>11</title>
<ellipse fill="none" stroke="black" cx="210" cy="-315" rx="34.1461" ry="18.3848"/>
<text text-anchor="middle" x="210" y="-311.4" font-family="Times Roman,serif" font-size="14.00">RIP1</text>
</g>
<!-- 11&#45;&gt;8 -->
<g id="edge28" class="edge"><title>11&#45;&gt;8</title>
<path fill="none" stroke="black" d="M210,-296.327C210,-288.264 210,-278.648 210,-269.711"/>
<polygon fill="black" stroke="black" points="213.5,-269.667 210,-259.667 206.5,-269.667 213.5,-269.667"/>
</g>
<!-- 12 -->
<g id="node12" class="node"><title>12</title>
<ellipse fill="none" stroke="black" cx="210" cy="-463" rx="38.1838" ry="18.3848"/>
<text text-anchor="middle" x="210" y="-459.4" font-family="Times Roman,serif" font-size="14.00">TNFα</text>
</g>
<!-- 12&#45;&gt;13 -->
<g id="edge30" class="edge"><title>12&#45;&gt;13</title>
<path fill="none" stroke="black" d="M210,-444.327C210,-436.264 210,-426.648 210,-417.711"/>
<polygon fill="black" stroke="black" points="213.5,-417.667 210,-407.667 206.5,-417.667 213.5,-417.667"/>
</g>
<!-- 13&#45;&gt;2 -->
<g id="edge32" class="edge"><title>13&#45;&gt;2</title>
<path fill="none" stroke="black" d="M191.122,-372.943C178.955,-362.594 162.955,-348.985 149.519,-337.557"/>
<polygon fill="black" stroke="black" points="151.427,-334.584 141.542,-330.771 146.892,-339.916 151.427,-334.584"/>
</g>
<!-- 13&#45;&gt;11 -->
<g id="edge34" class="edge"><title>13&#45;&gt;11</title>
<path fill="none" stroke="black" d="M210,-370.327C210,-362.264 210,-352.648 210,-343.711"/>
<polygon fill="black" stroke="black" points="213.5,-343.667 210,-333.667 206.5,-343.667 213.5,-343.667"/>
</g>
</g>
</svg>
